# This file uses centimeters as units for non-parametric coordinates.

mtllib DiamondOBJ.mtl
g default
v 0.309017 1.000000 -0.951057
v -0.809017 1.000000 -0.587785
v -0.809017 1.000000 0.587785
v 0.309017 1.000000 0.951057
v 1.000000 1.000000 0.000000
v 0.154509 1.438587 -0.475528
v -0.404509 1.438587 -0.293893
v -0.404509 1.438587 0.293893
v 0.154508 1.438587 0.475528
v 0.500000 1.438587 0.000000
v 0.000000 1.877174 0.000000
v 0.154509 0.000000 -0.475528
v -0.404509 0.000000 -0.293893
v -0.404509 0.000000 0.293893
v 0.154508 0.000000 0.475528
v 0.500000 0.000000 0.000000
v 0.000000 -1.000000 0.000000
vt 0.577254 0.012236
vt 0.297746 0.103054
vt 0.297746 0.396946
vt 0.577254 0.487764
vt 0.750000 0.250000
vt 0.250000 0.500000
vt 0.350000 0.500000
vt 0.450000 0.500000
vt 0.550000 0.500000
vt 0.650000 0.500000
vt 0.750000 0.500000
vt 0.375000 0.750000
vt 0.425000 0.750000
vt 0.475000 0.750000
vt 0.525000 0.750000
vt 0.575000 0.750000
vt 0.625000 0.750000
vt 0.500000 1.000000
vt 0.250000 0.500000
vt 0.350000 0.500000
vt 0.425000 0.750000
vt 0.375000 0.750000
vt 0.450000 0.500000
vt 0.475000 0.750000
vt 0.550000 0.500000
vt 0.525000 0.750000
vt 0.650000 0.500000
vt 0.575000 0.750000
vt 0.750000 0.500000
vt 0.625000 0.750000
vt 0.577254 0.012236
vt 0.750000 0.250000
vt 0.577254 0.487764
vt 0.297746 0.396946
vt 0.297746 0.103054
vt 0.500000 1.000000
vn 0.203775 0.751766 -0.627155
vn -0.533490 0.751766 -0.387603
vn -0.533490 0.751766 -0.387603
vn 0.203775 0.751766 -0.627155
vn -0.533490 0.751766 0.387603
vn -0.533490 0.751766 0.387603
vn 0.203775 0.751766 0.627155
vn 0.203775 0.751766 0.627155
vn 0.659430 0.751766 0.000000
vn 0.659430 0.751766 0.000000
vn 0.000000 -1.000000 0.000000
vn 0.000000 -1.000000 0.000000
vn 0.000000 -1.000000 0.000000
vn 0.000000 -1.000000 0.000000
vn 0.000000 -1.000000 0.000000
vn -0.227155 0.677971 -0.699111
vn -0.735088 0.677971 0.000000
vn -0.227155 0.677972 0.699110
vn 0.594699 0.677971 0.432074
vn 0.594699 0.677972 -0.432074
vn 0.276393 -0.447214 -0.850651
vn 0.276393 -0.447214 -0.850651
vn -0.723607 -0.447214 -0.525731
vn -0.723607 -0.447214 -0.525731
vn -0.723607 -0.447214 0.525731
vn -0.723607 -0.447214 0.525731
vn 0.276393 -0.447214 0.850651
vn 0.276393 -0.447214 0.850651
vn 0.894427 -0.447214 0.000000
vn 0.894427 -0.447214 0.000000
vn 0.000000 1.000000 -0.000000
vn 0.000000 1.000000 -0.000000
vn 0.000000 1.000000 -0.000000
vn 0.000000 1.000000 -0.000000
vn 0.000000 1.000000 -0.000000
vn -0.286468 -0.374991 -0.881657
vn -0.927028 -0.374991 -0.000000
vn -0.286468 -0.374991 0.881656
vn 0.749982 -0.374991 0.544894
vn 0.749982 -0.374991 -0.544894
s 1
g initialShadingGroup pCone3
f 1/6/1 2/7/2 7/13/3 6/12/4
f 2/7/2 3/8/5 8/14/6 7/13/3
f 3/8/5 4/9/7 9/15/8 8/14/6
f 4/9/7 5/10/9 10/16/10 9/15/8
f 5/10/9 1/11/1 6/17/4 10/16/10
s off
f 1/1/11 5/5/12 4/4/13 3/3/14 2/2/15
s 1
f 6/12/4 7/13/3 11/18/16
f 7/13/3 8/14/6 11/18/17
f 8/14/6 9/15/8 11/18/18
f 9/15/8 10/16/10 11/18/19
f 10/16/10 6/17/4 11/18/20
s 2
f 1/19/21 12/22/22 13/21/23 2/20/24
f 2/20/24 13/21/23 14/24/25 3/23/26
f 3/23/26 14/24/25 15/26/27 4/25/28
f 4/25/28 15/26/27 16/28/29 5/27/30
f 5/27/30 16/28/29 12/30/22 1/29/21
s off
f 1/31/31 2/35/32 3/34/33 4/33/34 5/32/35
s 2
f 12/22/22 17/36/36 13/21/23
f 13/21/23 17/36/37 14/24/25
f 14/24/25 17/36/38 15/26/27
f 15/26/27 17/36/39 16/28/29
f 16/28/29 17/36/40 12/30/22
